<?xml version="1.0" standalone="no"?>
<!DOCTYPE svg PUBLIC "-//W3C//DTD SVG 20010904//EN"
 "http://www.w3.org/TR/2001/REC-SVG-20010904/DTD/svg10.dtd">
<svg version="1.0" xmlns="http://www.w3.org/2000/svg"
 width="1024.000000pt" height="1024.000000pt" viewBox="0 0 1024.000000 1024.000000"
 preserveAspectRatio="xMidYMid meet">

<g transform="translate(0.000000,1024.000000) scale(0.100000,-0.100000)"
fill="#000000" stroke="none">
<path d="M4835 9693 c-121 -8 -424 -45 -517 -64 -280 -55 -632 -159 -863 -256
-94 -39 -390 -189 -495 -251 -458 -268 -866 -629 -1235 -1092 -356 -446 -659
-1130 -785 -1772 -11 -56 -32 -194 -46 -307 -24 -192 -25 -227 -21 -521 5
-333 18 -462 71 -747 31 -163 55 -257 112 -444 36 -118 45 -164 47 -235 3
-108 24 -154 104 -234 42 -43 64 -77 99 -155 114 -256 305 -553 513 -793 53
-62 68 -87 63 -100 -5 -9 -23 -47 -40 -85 -37 -78 -62 -172 -62 -237 0 -104
56 -267 129 -375 l20 -31 -91 -59 c-245 -161 -371 -371 -338 -567 25 -144 125
-287 247 -351 256 -134 528 -123 765 32 40 26 97 71 126 99 29 29 56 52 58 52
3 0 20 -11 37 -24 92 -70 269 -127 348 -112 49 9 111 55 153 113 35 48 76 165
76 215 0 50 19 39 57 -34 82 -157 239 -263 405 -274 138 -10 248 35 390 158
l57 51 56 -51 c64 -59 171 -114 265 -138 85 -22 253 -22 342 0 148 35 342 152
465 279 l73 75 32 -61 c75 -140 243 -261 399 -287 113 -19 245 -8 358 29 105
35 225 92 297 142 l47 32 31 -39 c59 -75 121 -125 211 -169 110 -55 194 -69
355 -62 214 9 378 86 551 257 119 118 164 193 198 330 l18 75 84 50 c111 67
230 183 266 261 53 114 32 233 -61 332 -84 90 -147 101 -239 42 -26 -16 -47
-28 -47 -26 0 3 28 27 63 56 172 142 455 443 593 630 323 439 592 1042 699
1569 67 328 89 583 82 930 -9 458 -69 807 -214 1256 -241 746 -672 1381 -1300
1917 -361 307 -845 579 -1309 734 -374 125 -761 206 -1118 234 -118 9 -460 11
-581 3z m516 -193 c602 -46 1257 -235 1744 -503 378 -208 826 -570 1071 -867
227 -274 397 -522 531 -770 205 -382 389 -978 450 -1460 22 -182 25 -660 5
-815 -46 -342 -137 -739 -203 -892 l-21 -48 -14 45 c-20 66 -18 97 20 248 117
466 160 844 138 1210 -15 251 -30 354 -92 631 -155 692 -323 1062 -736 1617
-105 142 -497 541 -644 656 -496 389 -1124 666 -1770 782 -282 50 -404 61
-720 61 -386 0 -653 -31 -975 -115 -557 -144 -993 -355 -1435 -694 -535 -410
-994 -993 -1243 -1576 -110 -259 -228 -708 -276 -1050 -35 -248 -35 -654 0
-970 11 -96 23 -198 26 -227 5 -49 -11 -172 -27 -202 -16 -31 -81 343 -101
586 -13 164 -7 682 11 808 16 121 76 411 120 585 64 252 121 409 243 662 91
189 130 258 273 473 226 342 533 680 835 921 396 316 775 530 1190 672 315
108 535 160 846 202 285 39 516 48 754 30z m209 -219 c505 -71 903 -191 1335
-401 370 -179 613 -350 903 -635 355 -346 544 -598 755 -1007 103 -200 231
-546 286 -778 120 -508 136 -628 136 -1030 0 -229 -4 -321 -18 -410 -27 -179
-110 -590 -120 -590 -4 0 -7 8 -6 17 3 38 -2 62 -17 77 -15 16 -21 33 -23 66
-1 13 -2 13 -11 0 -9 -13 -10 -13 -10 1 0 8 -7 24 -15 35 -15 19 -15 19 -8 -1
10 -32 -1 -17 -62 85 -31 52 -72 114 -91 137 -19 23 -34 46 -34 51 0 5 -14 28
-30 50 -23 32 -37 42 -58 42 -16 0 -73 13 -128 29 -115 34 -204 51 -438 82
l-168 22 6 36 c57 366 56 617 -4 921 -43 218 -176 592 -272 770 -56 103 -178
286 -266 398 -40 51 -69 98 -66 104 4 6 3 8 -3 5 -6 -4 -41 28 -79 71 -113
127 -190 196 -334 298 -329 236 -655 383 -1089 494 -294 75 -699 86 -1082 30
-386 -57 -835 -253 -1139 -498 -52 -43 -102 -83 -112 -90 -9 -7 -68 -21 -130
-32 -62 -10 -212 -39 -333 -65 -358 -74 -499 -88 -608 -60 -118 31 -208 12
-275 -58 -41 -43 -65 -108 -96 -262 -31 -156 -69 -281 -84 -278 -23 5 -46 -61
-47 -137 -1 -65 -12 -108 -82 -320 -118 -355 -147 -452 -213 -714 -82 -319
-117 -476 -130 -582 -6 -49 -14 -100 -17 -114 -4 -24 -5 -24 -16 -5 -8 14 -12
126 -12 380 0 382 6 453 66 780 40 220 141 565 234 800 139 351 509 873 861
1215 319 310 589 501 987 700 176 87 255 120 410 170 106 35 217 71 247 80
333 109 648 151 1100 145 188 -2 293 -8 400 -24z m-261 -1096 c352 -40 718
-155 1041 -328 297 -159 561 -371 745 -599 89 -110 245 -345 305 -461 88 -166
193 -443 245 -642 23 -87 55 -392 55 -520 0 -126 -14 -318 -31 -419 l-11 -68
-37 6 c-20 3 -45 6 -56 6 -43 1 -46 11 -30 96 66 340 18 835 -114 1190 -121
325 -273 573 -491 798 -240 248 -469 420 -740 555 -377 187 -644 254 -1070
267 -309 10 -514 -16 -803 -101 -154 -46 -225 -74 -360 -142 -76 -38 -132 -58
-185 -68 -73 -13 -218 -46 -272 -61 -31 -8 24 33 165 125 248 161 626 301 934
346 239 35 505 43 710 20z m-819 -420 c20 -10 39 -36 60 -80 30 -63 80 -236
80 -277 0 -13 -16 -26 -52 -43 -29 -14 -59 -25 -66 -25 -7 0 -33 44 -58 98
-37 78 -57 108 -106 154 -55 53 -167 118 -202 118 -32 0 -24 20 11 30 133 39
285 50 333 25z m195 -687 c35 -155 34 -162 -12 -176 -46 -14 -53 -9 -53 36 0
21 -6 62 -14 92 -16 62 -12 70 41 70 26 0 34 -5 38 -22z m-46 -462 c-2 -3 -33
-36 -69 -75 -36 -39 -68 -71 -72 -71 -15 0 64 116 89 132 24 16 64 26 52 14z
m-219 -104 c0 -23 -38 -42 -69 -36 -36 7 -33 14 12 31 39 14 57 16 57 5z m469
-78 c12 -11 12 -19 -3 -58 l-17 -45 -37 14 c-20 8 -56 19 -79 25 -24 6 -43 14
-43 19 0 5 20 30 44 56 l45 47 38 -22 c21 -13 44 -29 52 -36z m-3042 -108 c54
-35 186 -112 293 -171 107 -59 209 -115 225 -125 78 -47 437 -182 550 -206
110 -24 284 -28 401 -11 121 19 424 116 579 187 l110 49 22 -26 c16 -20 19
-29 10 -35 -8 -5 -4 -8 9 -8 12 0 28 -8 35 -17 23 -28 128 -91 187 -113 34
-13 98 -25 159 -30 130 -10 286 -58 363 -112 52 -36 95 -73 308 -263 188 -169
313 -255 446 -310 92 -38 101 -44 98 -66 -6 -42 -187 -400 -256 -506 -36 -55
-103 -152 -148 -215 -46 -63 -110 -155 -143 -206 -54 -82 -63 -91 -91 -92 -34
0 -405 52 -529 75 -44 8 -143 26 -220 40 -129 23 -453 73 -720 111 -71 10
-114 21 -122 30 -8 11 -13 12 -18 4 -5 -7 -22 -9 -49 -5 -215 33 -343 58 -352
68 -13 13 -54 236 -84 458 -19 134 -37 224 -56 273 -6 16 -4 18 12 12 46 -19
192 -67 227 -75 34 -8 37 -7 37 13 0 25 -62 249 -84 300 -8 20 -24 37 -38 41
-23 8 -363 198 -788 440 -177 101 -481 292 -552 347 -16 12 -16 16 -2 58 20
56 30 68 46 52 7 -7 19 -12 28 -12 12 1 11 3 -4 15 -10 8 -23 16 -29 18 -15 5
12 77 28 77 8 0 58 -29 112 -64z m3303 -122 c47 -49 43 -49 -27 -2 -43 29 -55
48 -30 48 7 0 33 -21 57 -46z m320 -235 c28 -22 49 -43 47 -46 -9 -8 -117 59
-117 73 0 22 15 17 70 -27z m1531 -815 c22 -3 43 -12 46 -20 7 -18 23 -18 23
1 0 8 6 12 13 10 10 -4 84 -17 237 -41 19 -3 143 -22 275 -44 132 -21 269 -41
305 -44 174 -18 470 -81 470 -102 0 -10 -69 -66 -116 -94 -34 -20 -80 -34
-144 -45 -51 -9 -125 -25 -164 -35 -39 -10 -127 -23 -196 -29 -69 -7 -168 -19
-220 -27 -52 -8 -134 -18 -183 -24 -67 -7 -114 -20 -200 -56 -153 -63 -147
-62 -147 -29 0 24 -2 26 -15 15 -11 -9 -13 -16 -5 -24 20 -20 9 -33 -65 -75
-104 -60 -166 -77 -216 -61 -70 23 -148 122 -136 171 4 16 34 44 83 79 149
104 248 224 267 327 6 29 -8 99 -28 147 -7 17 -4 18 33 12 23 -3 60 -9 83 -12z
m-5628 -460 c96 -65 293 -128 577 -184 107 -22 272 -55 365 -74 94 -20 247
-49 340 -65 94 -17 258 -48 365 -70 107 -22 308 -56 445 -76 300 -44 586 -90
675 -110 58 -13 553 -93 670 -109 25 -3 96 -10 158 -16 63 -6 166 -19 230 -30
127 -21 362 -43 652 -60 102 -6 235 -15 295 -21 120 -11 607 4 705 21 30 6
163 24 294 41 132 16 278 37 325 45 203 35 571 144 774 229 89 38 265 145 389
237 37 27 72 47 76 44 5 -3 15 -19 22 -36 11 -26 9 -34 -13 -73 -61 -103 -401
-314 -603 -372 -49 -14 -114 -34 -144 -44 -30 -10 -91 -28 -135 -41 -44 -12
-84 -26 -90 -31 -14 -14 41 -11 94 6 25 8 80 23 121 34 120 32 306 105 425
167 61 32 112 61 115 64 3 4 23 17 45 29 45 24 126 87 137 105 4 7 23 30 42
51 30 32 38 36 51 25 8 -7 20 -29 26 -50 10 -33 9 -41 -14 -77 -50 -78 -231
-224 -387 -310 -77 -42 -431 -181 -595 -233 -22 -7 -101 -36 -175 -65 -330
-128 -559 -186 -975 -246 -323 -47 -911 -62 -1155 -29 -96 13 -395 47 -480 55
-99 9 -455 52 -750 91 -213 27 -267 37 -275 51 -49 83 -198 182 -311 209 -110
25 -190 6 -278 -68 l-49 -42 -196 23 c-108 12 -241 28 -296 36 -55 8 -183 21
-285 30 -167 14 -329 40 -759 121 -211 40 -509 139 -579 192 l-23 17 36 216
c19 119 37 224 41 233 8 20 18 20 48 1 21 -14 188 -77 251 -95 141 -40 214
-62 249 -74 68 -24 208 -64 251 -71 22 -3 76 -15 120 -25 44 -11 118 -22 165
-26 47 -3 117 -14 156 -25 38 -10 83 -19 100 -19 16 0 56 -8 89 -18 60 -18
112 -28 525 -98 335 -57 532 -89 765 -125 33 -5 69 -12 80 -16 11 -3 47 -9 80
-13 80 -9 281 -44 499 -87 98 -19 251 -43 340 -53 88 -10 256 -30 371 -45 140
-17 311 -29 510 -36 331 -12 877 -6 941 10 23 6 86 15 140 21 55 6 133 15 174
19 228 25 673 131 550 131 -24 0 -296 -59 -328 -71 -13 -5 -108 -18 -210 -29
-103 -11 -205 -22 -227 -24 -22 -2 -94 -12 -160 -21 -101 -14 -174 -16 -455
-11 -357 6 -613 18 -775 35 -55 5 -147 15 -205 21 -58 6 -121 15 -140 20 -19
4 -64 9 -100 9 -36 1 -78 6 -95 11 -16 5 -68 14 -115 20 -47 6 -121 17 -165
25 -185 34 -375 64 -440 70 -38 4 -128 18 -200 32 -134 26 -266 48 -370 62
-33 4 -105 16 -160 25 -55 9 -143 24 -195 32 -52 8 -120 21 -150 29 -74 19
-178 35 -229 35 -23 0 -87 11 -144 25 -106 25 -391 81 -557 109 -138 23 -269
52 -336 75 -33 10 -91 26 -130 34 -39 8 -79 19 -90 25 -10 5 -44 17 -74 25
-52 15 -203 67 -245 85 -11 5 -37 17 -58 26 l-38 16 3 70 c1 40 7 70 13 70 6
0 28 -12 48 -26z m7362 -1021 c-179 -344 -360 -597 -631 -882 -83 -87 -285
-271 -298 -271 -3 0 -6 25 -6 56 l0 55 188 187 c265 263 425 467 617 787 75
123 101 158 149 197 33 26 62 46 64 43 2 -2 -35 -80 -83 -172z m-7171 -11 c48
-17 53 -22 117 -130 90 -151 208 -313 333 -459 l104 -121 -41 -33 -41 -33 -44
50 c-156 175 -318 412 -426 623 -51 100 -61 121 -53 121 1 0 24 -8 51 -18z
m2151 -13 c93 -35 188 -135 209 -221 15 -66 -64 -270 -170 -433 -55 -86 -108
-185 -101 -191 2 -2 27 13 55 35 29 21 86 55 127 77 65 33 85 38 143 38 145 0
250 -63 315 -189 30 -57 31 -66 32 -180 0 -113 -2 -124 -32 -195 -57 -135
-164 -395 -170 -415 -6 -18 -4 -18 10 -6 30 24 154 175 171 208 8 17 25 58 37
90 74 196 295 440 527 581 126 77 194 97 327 97 l110 0 90 -45 c63 -32 109
-64 156 -110 74 -73 98 -124 127 -268 l17 -83 57 88 c31 48 85 116 119 151 72
73 248 208 328 251 130 69 307 90 430 52 34 -10 94 -39 134 -65 58 -35 79 -55
99 -93 39 -73 61 -171 56 -246 -2 -36 0 -63 4 -61 16 10 57 90 68 134 25 96
78 177 179 271 110 103 169 140 261 164 80 21 133 14 214 -27 58 -29 186 -134
186 -152 0 -4 -25 -48 -56 -97 -52 -82 -57 -95 -70 -186 -15 -101 -11 -170 12
-261 21 -82 57 -192 64 -192 3 0 39 21 80 46 41 25 101 52 134 61 33 8 67 20
77 26 14 8 22 5 42 -19 34 -39 67 -105 74 -149 15 -92 -75 -196 -245 -283
l-99 -52 -7 -57 c-4 -32 -18 -85 -31 -118 -14 -33 -25 -65 -25 -71 0 -16 -77
-123 -123 -173 -249 -260 -690 -315 -908 -114 -57 53 -119 154 -119 195 0 10
-2 18 -4 18 -2 0 -61 -36 -131 -81 -216 -138 -354 -189 -509 -189 -100 1 -149
11 -234 53 -149 72 -250 235 -253 407 -1 90 -12 92 -54 11 -49 -98 -97 -162
-181 -241 -201 -189 -398 -269 -601 -243 -164 21 -266 76 -346 185 -27 37 -52
68 -56 68 -3 0 -45 -35 -93 -78 -148 -131 -234 -174 -358 -176 -94 -1 -159 21
-225 75 -155 128 -194 298 -140 599 6 29 0 23 -37 -40 -24 -41 -61 -113 -82
-160 -22 -47 -52 -112 -69 -145 -16 -33 -42 -105 -59 -160 -36 -124 -65 -170
-114 -184 -86 -24 -241 37 -358 139 l-37 33 -16 -24 c-9 -13 -52 -60 -97 -104
-127 -126 -251 -180 -436 -192 -281 -18 -525 157 -525 377 0 192 131 358 389
491 l104 54 -65 92 c-154 221 -180 375 -93 550 53 108 124 195 212 261 141
106 246 145 398 146 101 1 108 0 175 -34 58 -29 74 -43 95 -80 36 -66 35 -164
-3 -241 -28 -57 -107 -136 -180 -179 -57 -34 -73 -121 -42 -227 25 -85 45 -89
148 -23 39 25 46 36 85 138 24 62 56 150 72 197 16 46 55 142 88 212 33 71 83
181 112 245 106 238 255 484 350 579 82 81 152 97 255 58z m4799 -21 c-86
-143 -310 -450 -405 -552 -35 -38 -85 -92 -110 -120 l-47 -51 -11 40 c-8 27
-35 65 -84 117 -82 88 -155 128 -278 154 -66 14 -80 14 -144 -1 -38 -8 -111
-36 -162 -61 -94 -47 -146 -89 -257 -214 -42 -47 -60 -61 -64 -50 -3 8 -31 42
-63 75 -52 54 -58 66 -69 124 -6 34 -9 65 -7 67 11 12 140 16 160 5 15 -7 32
-8 52 -2 22 7 25 10 10 11 -18 1 -18 2 3 11 13 5 65 17 115 28 182 37 334 73
455 107 146 41 517 164 617 204 39 16 113 45 165 66 52 20 99 41 105 45 14 13
27 11 19 -3z m-6649 -47 c196 -48 706 -142 850 -156 85 -9 102 -17 184 -90 35
-31 86 -71 113 -87 26 -16 48 -36 48 -43 0 -19 -46 -155 -74 -219 l-26 -58
-51 56 c-147 161 -415 188 -663 66 l-64 -32 -39 42 c-69 77 -75 84 -151 185
-85 111 -242 344 -242 357 0 5 8 7 18 4 9 -3 53 -14 97 -25z m852 -1223 c-3
-8 -6 -5 -6 6 -1 11 2 17 5 13 3 -3 4 -12 1 -19z"/>
<path d="M5703 9025 c-98 -27 -149 -70 -207 -175 -76 -140 -85 -268 -26 -379
59 -111 152 -165 285 -166 96 0 169 29 233 93 71 71 132 226 132 336 0 148
-106 266 -265 295 -73 14 -87 13 -152 -4z m183 -174 c116 -71 56 -347 -83
-389 -77 -23 -163 25 -184 101 -23 87 17 215 87 276 30 27 42 31 92 31 38 0
67 -6 88 -19z"/>
<path d="M6361 8774 c-24 -42 -79 -154 -121 -248 -42 -94 -86 -189 -97 -211
-39 -76 -38 -83 4 -95 21 -6 58 -10 83 -8 l44 3 61 120 c34 66 73 149 88 184
15 35 30 62 32 60 2 -3 9 -79 15 -169 6 -91 19 -205 28 -255 17 -86 19 -90 59
-118 26 -19 55 -30 79 -31 l37 -1 61 150 c34 83 68 161 76 175 11 21 100 257
117 311 3 12 -11 22 -57 39 -35 13 -64 19 -69 14 -4 -5 -27 -56 -51 -114 -24
-58 -58 -140 -77 -183 -18 -43 -33 -86 -33 -97 0 -10 -4 -21 -8 -24 -8 -5 -29
271 -35 444 l-2 65 -55 27 c-30 15 -73 30 -95 33 l-40 6 -44 -77z"/>
<path d="M7109 8397 c-178 -207 -394 -475 -388 -481 2 -2 65 -47 140 -99 75
-53 142 -103 149 -112 21 -25 45 -17 89 31 23 26 40 48 38 50 -1 2 -21 16 -44
31 -22 15 -64 49 -93 75 -59 54 -59 65 -6 117 l35 34 80 -57 c44 -31 86 -56
94 -56 13 0 107 90 107 102 0 4 -38 29 -84 57 -112 68 -114 71 -75 115 17 20
39 36 49 36 9 0 37 -15 61 -33 90 -69 103 -71 158 -19 45 42 50 58 24 79 -44
34 -164 113 -224 146 l-65 37 -45 -53z"/>
<path d="M6030 8421 c0 -6 4 -13 10 -16 6 -3 7 1 4 9 -7 18 -14 21 -14 7z"/>
<path d="M7695 7807 c-55 -26 -107 -73 -130 -117 -17 -32 -12 -49 43 -177 35
-78 35 -148 0 -180 -18 -16 -22 -16 -46 -2 -41 22 -57 64 -54 141 1 57 -1 69
-18 78 -30 16 -44 12 -84 -22 -69 -60 -67 -162 4 -262 37 -51 91 -92 140 -106
70 -20 225 59 251 128 13 34 11 98 -7 177 -45 202 -43 185 -23 195 35 19 105
-32 129 -94 8 -21 14 -26 28 -21 9 4 32 11 51 15 55 14 63 42 35 123 -17 50
-47 78 -123 117 -67 34 -136 36 -196 7z"/>
<path d="M8112 7410 l-63 -29 19 -38 c38 -75 55 -114 51 -117 -2 -2 -69 -45
-148 -96 -135 -87 -265 -174 -284 -190 -6 -6 29 -76 59 -118 1 -2 25 8 53 22
28 15 74 35 103 46 51 19 72 33 222 144 78 56 78 56 132 -42 20 -37 37 -68 39
-70 4 -5 113 66 120 78 4 6 2 16 -3 23 -6 7 -44 77 -85 157 -63 123 -142 260
-150 260 -1 0 -30 -13 -65 -30z"/>
<path d="M8420 6819 c-14 -6 -122 -39 -240 -75 -274 -82 -353 -112 -346 -130
3 -8 31 -91 62 -185 48 -146 58 -169 73 -164 10 3 38 11 62 18 52 15 51 15 17
139 l-25 87 60 21 c33 11 63 17 66 14 3 -3 15 -38 27 -77 15 -50 26 -73 39
-75 19 -4 122 25 129 37 3 4 -1 20 -9 36 -17 39 -35 95 -35 110 0 12 60 42 95
47 17 3 25 -12 54 -99 31 -96 35 -103 60 -103 41 0 101 20 101 33 -1 39 -64
271 -90 332 -16 38 -23 45 -47 44 -15 0 -39 -5 -53 -10z"/>
<path d="M8540 6249 c-68 -4 -143 -12 -165 -18 -22 -5 -121 -24 -219 -41 -99
-17 -181 -32 -183 -34 -5 -5 26 -139 36 -155 8 -12 23 -12 107 2 55 9 102 13
105 9 4 -4 14 -41 23 -83 20 -90 52 -142 108 -170 36 -18 54 -21 114 -16 94 7
155 34 192 86 45 63 56 121 46 264 -5 67 -9 129 -9 137 0 14 -15 31 -25 28 -3
0 -61 -4 -130 -9z m20 -233 c0 -76 -18 -96 -85 -96 -57 0 -79 13 -96 57 -12
33 -11 70 2 79 13 8 150 21 167 16 7 -3 12 -23 12 -56z"/>
<path d="M1762 6258 c3 -7 15 -14 29 -16 23 -2 23 -2 5 13 -24 18 -39 20 -34
3z"/>
<path d="M1830 6223 c0 -10 61 -45 67 -39 5 5 -47 46 -58 46 -5 0 -9 -3 -9 -7z"/>
<path d="M1920 6172 c0 -5 11 -14 25 -20 29 -14 34 2 6 18 -24 12 -31 13 -31
2z"/>
<path d="M2000 6131 c0 -13 38 -33 53 -28 7 2 -3 11 -20 21 -18 9 -33 12 -33
7z"/>
<path d="M2080 6085 c0 -2 14 -11 30 -20 17 -9 30 -11 30 -6 0 6 -9 15 -19 21
-21 11 -41 13 -41 5z"/>
<path d="M2160 6042 c0 -5 11 -14 25 -20 26 -12 33 -4 13 16 -14 14 -38 16
-38 4z"/>
<path d="M2249 5990 c25 -21 41 -26 41 -12 0 9 -44 32 -58 32 -4 -1 4 -10 17
-20z"/>
<path d="M2310 5965 c0 -2 14 -11 30 -20 17 -9 30 -11 30 -6 0 6 -9 15 -19 21
-21 11 -41 13 -41 5z"/>
<path d="M3938 5949 c-31 -17 -19 -30 12 -14 17 9 30 18 30 20 0 8 -24 5 -42
-6z"/>
<path d="M2390 5931 c0 -10 31 -31 45 -31 11 0 -5 20 -26 30 -12 7 -19 7 -19
1z"/>
<path d="M3840 5907 c-22 -9 -23 -11 -6 -14 10 -3 23 0 29 6 16 16 5 20 -23 8z"/>
<path d="M2470 5892 c0 -11 24 -22 48 -22 21 0 5 15 -25 25 -13 3 -23 2 -23
-3z"/>
<path d="M3740 5867 c-19 -5 -30 -11 -23 -14 15 -6 80 12 68 19 -6 3 -26 1
-45 -5z"/>
<path d="M2560 5850 c0 -11 77 -50 99 -50 21 0 9 9 -48 36 -28 13 -51 19 -51
14z"/>
<path d="M3643 5828 c-34 -16 -28 -29 7 -17 17 6 30 15 30 20 0 11 -9 11 -37
-3z"/>
<path d="M4203 5819 c-18 -5 -35 -14 -39 -20 -4 -7 0 -9 12 -6 11 4 31 9 47
13 15 3 27 10 27 15 0 11 -4 10 -47 -2z"/>
<path d="M2703 5796 c4 -12 107 -38 107 -27 0 4 -25 15 -55 23 -38 11 -55 12
-52 4z"/>
<path d="M3550 5800 c-8 -5 -12 -12 -9 -15 8 -8 39 5 39 16 0 11 -11 11 -30
-1z"/>
<path d="M3453 5773 c-23 -9 -14 -25 10 -18 31 10 45 25 22 24 -11 0 -26 -3
-32 -6z"/>
<path d="M4080 5770 c-8 -5 -11 -12 -8 -16 10 -9 38 3 38 16 0 12 -10 13 -30
0z"/>
<path d="M2840 5752 c24 -15 110 -25 110 -13 0 6 -10 11 -22 11 -13 0 -41 3
-63 6 -27 4 -35 2 -25 -4z"/>
<path d="M3362 5753 c-6 -2 -10 -8 -7 -13 6 -9 53 -1 61 11 5 9 -32 11 -54 2z"/>
<path d="M4008 5743 c-21 -5 -24 -23 -5 -23 7 0 22 7 33 15 20 15 9 18 -28 8z"/>
<path d="M2975 5730 c3 -5 17 -10 31 -10 13 0 24 5 24 10 0 6 -14 10 -31 10
-17 0 -28 -4 -24 -10z"/>
<path d="M3270 5730 c0 -5 9 -10 19 -10 11 0 23 5 26 10 4 6 -5 10 -19 10 -14
0 -26 -4 -26 -10z"/>
<path d="M3064 5722 c5 -8 66 -4 66 4 0 2 -16 4 -36 4 -19 0 -33 -4 -30 -8z"/>
<path d="M3145 5720 c-8 -12 52 -12 80 0 15 6 8 9 -27 9 -26 1 -50 -3 -53 -9z"/>
<path d="M3947 5723 c-13 -13 -7 -21 13 -16 11 3 20 9 20 14 0 10 -24 12 -33
2z"/>
<path d="M3880 5693 c-19 -9 -30 -18 -24 -20 16 -5 64 15 64 27 0 5 -1 10 -2
9 -2 0 -19 -8 -38 -16z"/>
<path d="M3779 5650 c-13 -10 -21 -19 -18 -20 11 0 79 30 79 35 0 13 -40 3
-61 -15z"/>
<path d="M3717 5633 c-13 -13 -7 -21 13 -16 11 3 20 9 20 14 0 10 -24 12 -33
2z"/>
<path d="M3618 5593 c-10 -2 -18 -9 -18 -14 0 -10 32 -4 60 12 12 7 11 8 -5 8
-11 -1 -28 -3 -37 -6z"/>
<path d="M3535 5560 c-8 -13 15 -13 35 0 12 8 11 10 -7 10 -12 0 -25 -4 -28
-10z"/>
<path d="M3458 5534 c-16 -8 -28 -17 -28 -19 0 -12 30 -3 51 15 28 23 15 25
-23 4z"/>
<path d="M3360 5494 l-25 -15 35 6 c39 6 66 25 35 25 -11 -1 -31 -8 -45 -16z"/>
<path d="M3265 5455 c-30 -13 -30 -13 -4 -14 14 -1 34 6 45 14 25 19 1 19 -41
0z"/>
<path d="M3133 5405 c-33 -14 -40 -34 -27 -69 11 -28 23 -17 14 14 -8 27 -6
30 26 40 19 6 34 16 34 21 0 12 -9 11 -47 -6z"/>
<path d="M3128 5245 c8 -30 19 -55 24 -55 10 0 11 -2 -7 58 -9 29 -19 52 -24
52 -5 0 -1 -25 7 -55z"/>
<path d="M3166 5093 c11 -45 24 -76 30 -71 8 8 -17 98 -27 98 -5 0 -6 -12 -3
-27z"/>
<path d="M3200 4973 c0 -20 22 -73 30 -73 5 0 4 15 -2 33 -12 34 -28 58 -28
40z"/>
<path d="M3240 4833 c0 -24 23 -83 32 -83 6 0 7 8 3 18 -3 9 -9 29 -12 45 -5
24 -23 40 -23 20z"/>
<path d="M3275 4700 c9 -41 24 -74 32 -67 6 7 -16 79 -29 92 -7 7 -8 -2 -3
-25z"/>
<path d="M3321 4558 c-1 -9 4 -39 11 -67 13 -59 34 -71 23 -14 -8 46 -33 104
-34 81z"/>
<path d="M3361 4405 c0 -16 4 -39 9 -50 7 -17 9 -16 9 10 0 17 -4 39 -9 50 -7
17 -9 16 -9 -10z"/>
<path d="M7280 5063 c0 -13 5 -23 10 -23 13 0 13 11 0 30 -8 12 -10 11 -10 -7z"/>
<path d="M7555 5030 c3 -5 8 -10 11 -10 2 0 4 5 4 10 0 6 -5 10 -11 10 -5 0
-7 -4 -4 -10z"/>
<path d="M7051 4986 c-12 -14 -5 -26 16 -26 15 0 18 26 4 34 -5 3 -14 0 -20
-8z"/>
<path d="M7800 4981 c0 -6 5 -13 10 -16 6 -3 10 1 10 9 0 9 -4 16 -10 16 -5 0
-10 -4 -10 -9z"/>
<path d="M7550 4955 c-7 -9 -10 -18 -7 -21 10 -11 37 5 37 21 0 19 -14 19 -30
0z"/>
<path d="M7290 4946 c0 -8 -3 -22 -6 -30 -5 -12 -2 -15 10 -10 18 7 22 39 6
49 -5 3 -10 0 -10 -9z"/>
<path d="M7280 4783 c0 -12 7 -23 15 -26 23 -9 26 9 5 28 -19 17 -20 17 -20
-2z"/>
<path d="M3528 3523 c-25 -27 -63 -73 -84 -103 -53 -78 -195 -334 -245 -443
-23 -51 -65 -144 -94 -207 -72 -156 -83 -183 -115 -275 -51 -150 -124 -309
-154 -342 -34 -35 -201 -123 -235 -123 -16 0 -30 18 -60 78 -52 104 -71 172
-71 257 0 103 10 122 95 185 40 30 78 65 84 77 6 13 26 33 46 44 54 32 60 111
14 186 -26 42 -53 53 -131 53 -178 0 -400 -124 -506 -283 -66 -99 -77 -129
-77 -222 0 -110 21 -164 113 -287 108 -145 144 -204 129 -216 -7 -5 -73 -39
-147 -74 -156 -76 -257 -150 -324 -239 l-46 -61 0 -86 c1 -144 50 -221 169
-266 173 -66 302 -60 470 20 179 86 303 292 301 499 0 44 -2 100 -3 124 l-2
45 58 24 c31 14 60 22 64 18 4 -3 1 -34 -5 -69 -6 -34 -14 -137 -18 -228 l-7
-167 45 -45 c48 -48 171 -114 229 -123 l35 -6 24 93 c24 100 107 297 197 470
49 96 98 172 276 433 58 86 176 216 195 216 28 0 21 -45 -23 -147 -128 -295
-147 -349 -177 -493 -41 -196 -37 -275 15 -375 45 -86 77 -122 131 -146 80
-36 187 -16 306 58 30 19 107 88 171 154 84 85 120 115 126 106 5 -6 22 -45
37 -85 60 -156 208 -261 367 -262 57 0 175 30 251 63 81 36 174 101 243 171
58 59 158 216 202 316 24 56 35 64 101 78 105 23 97 36 97 -155 0 -167 0 -168
31 -233 44 -93 72 -122 167 -169 71 -36 95 -43 164 -48 99 -7 154 6 288 64
154 69 223 116 378 258 152 139 359 393 462 567 48 80 84 128 95 128 19 0 39
-32 55 -87 9 -31 28 -78 41 -104 70 -139 92 -312 53 -426 -55 -163 -240 -253
-239 -116 1 15 8 37 18 48 20 24 97 75 112 75 28 0 39 102 19 173 -8 30 -14
37 -27 32 -9 -3 -41 -13 -71 -21 -30 -7 -84 -31 -120 -53 -36 -21 -94 -52
-127 -69 -117 -59 -198 -190 -179 -289 14 -77 77 -158 152 -197 148 -76 419
-51 579 52 136 88 251 266 275 422 7 41 17 80 23 87 6 6 64 39 129 74 144 77
197 127 197 189 0 42 -14 80 -29 80 -5 0 -42 -20 -82 -45 -41 -25 -115 -62
-166 -84 l-92 -39 -58 171 -57 172 -1 160 c0 153 1 163 27 217 15 32 40 77 57
101 30 44 30 45 11 62 -11 10 -26 15 -34 12 -9 -4 -39 5 -68 18 -84 39 -137
35 -232 -21 -43 -25 -110 -78 -151 -117 -70 -70 -73 -75 -105 -175 -29 -93
-47 -125 -170 -311 -190 -288 -337 -455 -515 -587 -102 -75 -192 -116 -268
-122 -99 -8 -138 31 -138 138 -1 85 8 95 98 115 88 19 174 54 249 101 77 48
206 166 273 250 178 221 226 409 139 551 -31 51 -44 63 -114 98 -72 36 -86 40
-154 40 -138 -1 -225 -38 -395 -170 -163 -127 -287 -283 -415 -525 l-45 -84
-62 -20 c-35 -11 -65 -18 -67 -15 -3 2 8 54 25 114 65 238 44 388 -73 520 -40
46 -157 102 -239 115 -155 24 -329 -61 -537 -264 -111 -107 -165 -184 -252
-361 -66 -132 -94 -177 -161 -255 -113 -132 -287 -307 -321 -321 -32 -13 -58
1 -58 31 0 29 79 266 124 374 24 56 50 119 59 141 9 22 39 92 67 155 68 152
73 170 68 270 -10 186 -123 276 -290 230 -55 -16 -182 -103 -282 -194 -85 -78
-115 -113 -276 -319 -69 -89 -90 -110 -90 -89 0 7 22 66 107 282 40 101 206
430 258 512 81 124 143 250 160 321 l16 68 -33 46 c-22 30 -52 55 -90 74 -82
41 -104 39 -160 -18z m1760 -895 c27 -27 3 -309 -37 -439 -21 -66 -44 -89 -90
-89 -23 0 -76 53 -108 107 -24 42 -25 50 -21 146 6 112 19 155 67 209 55 63
157 98 189 66z m1228 -33 c11 -44 -5 -92 -59 -172 -89 -132 -192 -230 -330
-312 -33 -20 -38 -21 -43 -7 -19 48 253 443 341 498 44 27 83 24 91 -7z
m-1688 -469 c-9 -20 -5 -31 22 -73 75 -111 129 -149 243 -168 20 -3 37 -12 37
-19 0 -36 -146 -193 -234 -251 -59 -40 -116 -53 -158 -36 l-27 10 5 123 c5
167 27 276 72 370 20 42 40 74 44 72 4 -3 2 -15 -4 -28z m-2530 -428 c18 -18
15 -37 -17 -105 -50 -105 -191 -193 -258 -161 -36 17 -41 57 -14 101 24 38
106 99 194 144 70 36 78 38 95 21z"/>
<path d="M5166 2491 c-12 -14 -16 -38 -16 -112 1 -89 2 -93 16 -67 15 29 35
186 23 193 -3 3 -14 -4 -23 -14z"/>
<path d="M4846 1806 c-6 -53 -1 -86 13 -86 12 0 81 72 81 84 0 11 -63 56 -78
56 -5 0 -12 -24 -16 -54z"/>
<path d="M7117 2059 c-21 -28 -36 -53 -35 -55 2 -2 27 8 55 21 52 23 52 24 40
54 -6 17 -14 31 -17 31 -3 0 -22 -23 -43 -51z"/>
<path d="M6370 1869 c-36 -22 -102 -54 -147 -71 -86 -33 -88 -34 -74 -56 10
-17 98 15 162 58 44 29 138 109 129 109 -3 0 -34 -18 -70 -40z"/>
</g>
</svg>
